  0
SECTION
  2
HEADER
  9
$ACADVER
  1
AC1015
  9
$ACADMAINTVER
 70
     6
  9
$DWGCODEPAGE
  3
ANSI_936
  9
$INSBASE
 10
0.0
 20
0.0
 30
0.0
  9
$EXTMIN
 10
-105.4284994986
 20
-102.484788694
 30
0.0
  9
$EXTMAX
 10
105.4582914936
 20
101.5236333842
 30
0.0
  9
$LIMMIN
 10
0.0
 20
0.0
  9
$LIMMAX
 10
420.0
 20
297.0
  9
$ORTHOMODE
 70
     0
  9
$REGENMODE
 70
     1
  9
$FILLMODE
 70
     1
  9
$QTEXTMODE
 70
     0
  9
$MIRRTEXT
 70
     1
  9
$LTSCALE
 40
1.0
  9
$ATTMODE
 70
     1
  9
$TEXTSIZE
 40
3.5
  9
$TRACEWID
 40
1.0
  9
$TEXTSTYLE
  7
Standard
  9
$CLAYER
  8
0
  9
$CELTYPE
  6
ByLayer
  9
$CECOLOR
 62
   256
  9
$CELTSCALE
 40
1.0
  9
$DISPSILH
 70
     0
  9
$DIMSCALE
 40
1.0
  9
$DIMASZ
 40
4.08
  9
$DIMEXO
 40
0.0
  9
$DIMDLI
 40
3.75
  9
$DIMRND
 40
0.0
  9
$DIMDLE
 40
0.0
  9
$DIMEXE
 40
2.0
  9
$DIMTP
 40
0.0
  9
$DIMTM
 40
0.0
  9
$DIMTXT
 40
3.5
  9
$DIMCEN
 40
2.5
  9
$DIMTSZ
 40
0.0
  9
$DIMTOL
 70
     0
  9
$DIMLIM
 70
     0
  9
$DIMTIH
 70
     1
  9
$DIMTOH
 70
     1
  9
$DIMSE1
 70
     0
  9
$DIMSE2
 70
     0
  9
$DIMTAD
 70
     1
  9
$DIMZIN
 70
     0
  9
$DIMBLK
  1

  9
$DIMASO
 70
     1
  9
$DIMSHO
 70
     1
  9
$DIMPOST
  1

  9
$DIMAPOST
  1

  9
$DIMALT
 70
     0
  9
$DIMALTD
 70
     3
  9
$DIMALTF
 40
0.0393700787
  9
$DIMLFAC
 40
1.0
  9
$DIMTOFL
 70
     1
  9
$DIMTVP
 40
0.0
  9
$DIMTIX
 70
     0
  9
$DIMSOXD
 70
     0
  9
$DIMSAH
 70
     0
  9
$DIMBLK1
  1

  9
$DIMBLK2
  1

  9
$DIMSTYLE
  2
ISO-25
  9
$DIMCLRD
 70
     0
  9
$DIMCLRE
 70
     0
  9
$DIMCLRT
 70
     0
  9
$DIMTFAC
 40
1.0
  9
$DIMGAP
 40
1.524
  9
$DIMJUST
 70
     0
  9
$DIMSD1
 70
     0
  9
$DIMSD2
 70
     0
  9
$DIMTOLJ
 70
     0
  9
$DIMTZIN
 70
     0
  9
$DIMALTZ
 70
     0
  9
$DIMALTTZ
 70
     0
  9
$DIMUPT
 70
     0
  9
$DIMDEC
 70
     2
  9
$DIMTDEC
 70
     2
  9
$DIMALTU
 70
     2
  9
$DIMALTTD
 70
     3
  9
$DIMTXSTY
  7
Standard
  9
$DIMAUNIT
 70
     0
  9
$DIMADEC
 70
     2
  9
$DIMALTRND
 40
0.0
  9
$DIMAZIN
 70
     0
  9
$DIMDSEP
 70
    44
  9
$DIMATFIT
 70
     3
  9
$DIMFRAC
 70
     0
  9
$DIMLDRBLK
  1

  9
$DIMLUNIT
 70
     2
  9
$DIMLWD
 70
    -2
  9
$DIMLWE
 70
    -2
  9
$DIMTMOVE
 70
     0
  9
$LUNITS
 70
     2
  9
$LUPREC
 70
     2
  9
$SKETCHINC
 40
1.0
  9
$FILLETRAD
 40
0.0
  9
$AUNITS
 70
     0
  9
$AUPREC
 70
     2
  9
$MENU
  1
.
  9
$ELEVATION
 40
0.0
  9
$PELEVATION
 40
0.0
  9
$THICKNESS
 40
0.0
  9
$LIMCHECK
 70
     0
  9
$CHAMFERA
 40
0.0
  9
$CHAMFERB
 40
0.0
  9
$CHAMFERC
 40
0.0
  9
$CHAMFERD
 40
0.0
  9
$SKPOLY
 70
     0
  9
$TDCREATE
 40
2460761.695495046
  9
$TDUCREATE
 40
2460761.362161713
  9
$TDUPDATE
 40
2460761.69552235
  9
$TDUUPDATE
 40
2460761.362189017
  9
$TDINDWG
 40
0.0000000116
  9
$TDUSRTIMER
 40
0.0000000116
  9
$USRTIMER
 70
     1
  9
$ANGBASE
 50
0.0
  9
$ANGDIR
 70
     0
  9
$PDMODE
 70
     0
  9
$PDSIZE
 40
-1.0
  9
$PLINEWID
 40
0.0
  9
$SPLFRAME
 70
     0
  9
$SPLINETYPE
 70
     6
  9
$SPLINESEGS
 70
     8
  9
$HANDSEED
  5
88
  9
$SURFTAB1
 70
     6
  9
$SURFTAB2
 70
     6
  9
$SURFTYPE
 70
     6
  9
$SURFU
 70
     6
  9
$SURFV
 70
     6
  9
$UCSBASE
  2

  9
$UCSNAME
  2

  9
$UCSORG
 10
0.0
 20
0.0
 30
0.0
  9
$UCSXDIR
 10
1.0
 20
0.0
 30
0.0
  9
$UCSYDIR
 10
0.0
 20
1.0
 30
0.0
  9
$UCSORTHOREF
  2

  9
$UCSORTHOVIEW
 70
     0
  9
$UCSORGTOP
 10
0.0
 20
0.0
 30
0.0
  9
$UCSORGBOTTOM
 10
0.0
 20
0.0
 30
0.0
  9
$UCSORGLEFT
 10
0.0
 20
0.0
 30
0.0
  9
$UCSORGRIGHT
 10
0.0
 20
0.0
 30
0.0
  9
$UCSORGFRONT
 10
0.0
 20
0.0
 30
0.0
  9
$UCSORGBACK
 10
0.0
 20
0.0
 30
0.0
  9
$PUCSBASE
  2

  9
$PUCSNAME
  2

  9
$PUCSORG
 10
0.0
 20
0.0
 30
0.0
  9
$PUCSXDIR
 10
1.0
 20
0.0
 30
0.0
  9
$PUCSYDIR
 10
0.0
 20
1.0
 30
0.0
  9
$PUCSORTHOREF
  2

  9
$PUCSORTHOVIEW
 70
     0
  9
$PUCSORGTOP
 10
0.0
 20
0.0
 30
0.0
  9
$PUCSORGBOTTOM
 10
0.0
 20
0.0
 30
0.0
  9
$PUCSORGLEFT
 10
0.0
 20
0.0
 30
0.0
  9
$PUCSORGRIGHT
 10
0.0
 20
0.0
 30
0.0
  9
$PUCSORGFRONT
 10
0.0
 20
0.0
 30
0.0
  9
$PUCSORGBACK
 10
0.0
 20
0.0
 30
0.0
  9
$USERI1
 70
     0
  9
$USERI2
 70
     0
  9
$USERI3
 70
     0
  9
$USERI4
 70
     0
  9
$USERI5
 70
     0
  9
$USERR1
 40
0.0
  9
$USERR2
 40
0.0
  9
$USERR3
 40
0.0
  9
$USERR4
 40
0.0
  9
$USERR5
 40
0.0
  9
$WORLDVIEW
 70
     1
  9
$SHADEDGE
 70
     3
  9
$SHADEDIF
 70
    70
  9
$TILEMODE
 70
     1
  9
$MAXACTVP
 70
    64
  9
$PINSBASE
 10
0.0
 20
0.0
 30
0.0
  9
$PLIMCHECK
 70
     0
  9
$PEXTMIN
 10
1.0000000000E+20
 20
1.0000000000E+20
 30
1.0000000000E+20
  9
$PEXTMAX
 10
-1.0000000000E+20
 20
-1.0000000000E+20
 30
-1.0000000000E+20
  9
$PLIMMIN
 10
0.0
 20
0.0
  9
$PLIMMAX
 10
420.0
 20
297.0
  9
$UNITMODE
 70
     0
  9
$VISRETAIN
 70
     1
  9
$PLINEGEN
 70
     0
  9
$PSLTSCALE
 70
     1
  9
$TREEDEPTH
 70
  3020
  9
$CMLSTYLE
  2
Standard
  9
$CMLJUST
 70
     0
  9
$CMLSCALE
 40
20.0
  9
$PROXYGRAPHICS
 70
     1
  9
$MEASUREMENT
 70
     1
  9
$CELWEIGHT
370
    -1
  9
$ENDCAPS
280
     0
  9
$JOINSTYLE
280
     0
  9
$LWDISPLAY
290
     1
  9
$INSUNITS
 70
     4
  9
$HYPERLINKBASE
  1

  9
$STYLESHEET
  1

  9
$XEDIT
290
     1
  9
$CEPSNTYPE
380
     0
  9
$PSTYLEMODE
290
     1
  9
$FINGERPRINTGUID
  2
{7c47040b-2d78-4e4f-81b4-734519495cd4}
  9
$VERSIONGUID
  2
{FAEB1C32-E019-11D5-929B-00C0DF256EC4}
  9
$EXTNAMES
290
     1
  9
$PSVPSCALE
 40
0.0
  9
$OLESTARTUP
290
     0
  0
ENDSEC
  0
SECTION
  2
CLASSES
  0
CLASS
  1
ACDBDICTIONARYWDFLT
  2
AcDbDictionaryWithDefault
  3
ObjectDBX Classes
 90
        0
280
     0
281
     0
  0
CLASS
  1
VISUALSTYLE
  2
AcDbVisualStyle
  3
ObjectDBX Classes
 90
     4095
280
     0
281
     0
  0
CLASS
  1
MATERIAL
  2
AcDbMaterial
  3
ObjectDBX Classes
 90
     1153
280
     0
281
     0
  0
CLASS
  1
SCALE
  2
AcDbScale
  3
ObjectDBX Classes
 90
     1153
280
     0
281
     0
  0
CLASS
  1
TABLESTYLE
  2
AcDbTableStyle
  3
ObjectDBX Classes
 90
     4095
280
     0
281
     0
  0
CLASS
  1
MLEADERSTYLE
  2
AcDbMLeaderStyle
  3
ACDB_MLEADERSTYLE_CLASS
 90
     4095
280
     0
281
     0
  0
CLASS
  1
SUN
  2
AcDbSun
  3
SCENEOE
 90
     1153
280
     0
281
     0
  0
CLASS
  1
ACDBPLACEHOLDER
  2
AcDbPlaceHolder
  3
ObjectDBX Classes
 90
        0
280
     0
281
     0
  0
CLASS
  1
LAYOUT
  2
AcDbLayout
  3
ObjectDBX Classes
 90
        0
280
     0
281
     0
  0
ENDSEC
  0
SECTION
  2
TABLES
  0
TABLE
  2
VPORT
  5
8
330
0
100
AcDbSymbolTable
 70
     1
  0
VPORT
  5
29
330
8
100
AcDbSymbolTableRecord
100
AcDbViewportTableRecord
  2
*Active
 70
     0
 10
0.0
 20
0.0
 11
1.0
 21
1.0
 12
0.0148959975
 22
-0.4805776549
 13
0.0
 23
0.0
 14
10.0
 24
10.0
 15
10.0
 25
10.0
 16
0.0
 26
0.0
 36
1.0
 17
0.0
 27
0.0
 37
0.0
 40
208.0885905198
 41
1.0337161027
 42
50.0
 43
0.0
 44
0.0
 50
0.0
 51
0.0
 71
     0
 72
   100
 73
     1
 74
     3
 75
     0
 76
     0
 77
     0
 78
     0
281
     0
 65
     1
110
0.0
120
0.0
130
0.0
111
1.0
121
0.0
131
0.0
112
0.0
122
1.0
132
0.0
 79
     0
146
0.0
  0
ENDTAB
  0
TABLE
  2
LTYPE
  5
5
330
0
100
AcDbSymbolTable
 70
     6
  0
LTYPE
  5
14
330
5
100
AcDbSymbolTableRecord
100
AcDbLinetypeTableRecord
  2
ByBlock
 70
     0
  3

 72
    65
 73
     0
 40
0.0
  0
LTYPE
  5
15
330
5
100
AcDbSymbolTableRecord
100
AcDbLinetypeTableRecord
  2
ByLayer
 70
     0
  3

 72
    65
 73
     0
 40
0.0
  0
LTYPE
  5
16
330
5
100
AcDbSymbolTableRecord
100
AcDbLinetypeTableRecord
  2
Continuous
 70
     0
  3
Solid line
 72
    65
 73
     0
 40
0.0
  0
LTYPE
  5
5E
330
5
100
AcDbSymbolTableRecord
100
AcDbLinetypeTableRecord
  2
HIDDEN
 70
     0
  3
Hidden __ __ __ __ __ __ __ __ __ __ __ __ __ __
 72
    65
 73
     2
 40
1.905
 49
1.27
 74
     0
 49
-0.635
 74
     0
  0
LTYPE
  5
5F
330
5
100
AcDbSymbolTableRecord
100
AcDbLinetypeTableRecord
  2
PHANTOM
 70
     0
  3
Phantom ______  __  __  ______  __  __  ______
 72
    65
 73
     6
 40
12.7
 49
6.35
 74
     0
 49
-1.27
 74
     0
 49
1.27
 74
     0
 49
-1.27
 74
     0
 49
1.27
 74
     0
 49
-1.27
 74
     0
  0
LTYPE
  5
60
330
5
100
AcDbSymbolTableRecord
100
AcDbLinetypeTableRecord
  2
CENTER
 70
     0
  3
Center ____ _ ____ _ ____ _ ____ _ ____ _ ____
 72
    65
 73
     4
 40
10.16
 49
6.35
 74
     0
 49
-1.27
 74
     0
 49
1.27
 74
     0
 49
-1.27
 74
     0
  0
LTYPE
  5
61
330
5
100
AcDbSymbolTableRecord
100
AcDbLinetypeTableRecord
  2
CENTERX2
 70
     0
  3
Center (2x) ________  __  ________  __  _____
 72
    65
 73
     4
 40
20.32
 49
12.7
 74
     0
 49
-2.54
 74
     0
 49
2.54
 74
     0
 49
-2.54
 74
     0
  0
LTYPE
  5
62
330
5
100
AcDbSymbolTableRecord
100
AcDbLinetypeTableRecord
  2
DOT2
 70
     0
  3
Dot (.5x) ........................................
 72
    65
 73
     2
 40
0.635
 49
0.0
 74
     0
 49
-0.635
 74
     0
  0
ENDTAB
  0
TABLE
  2
LAYER
  5
2
330
0
100
AcDbSymbolTable
 70
     1
  0
LAYER
  5
10
330
2
100
AcDbSymbolTableRecord
100
AcDbLayerTableRecord
  2
0
 70
     0
 62
     7
  6
Continuous
370
    -3
390
F
  0
ENDTAB
  0
TABLE
  2
STYLE
  5
3
330
0
100
AcDbSymbolTable
 70
     1
  0
STYLE
  5
11
330
3
100
AcDbSymbolTableRecord
100
AcDbTextStyleTableRecord
  2
Standard
 70
     0
 40
0.0
 41
1.0
 50
0.0
 71
     0
 42
3.5
  3
txt
  4

  0
ENDTAB
  0
TABLE
  2
VIEW
  5
6
330
0
100
AcDbSymbolTable
 70
     0
  0
ENDTAB
  0
TABLE
  2
UCS
  5
7
330
0
100
AcDbSymbolTable
 70
     0
  0
ENDTAB
  0
TABLE
  2
APPID
  5
9
330
0
100
AcDbSymbolTable
 70
     1
  0
APPID
  5
12
330
9
100
AcDbSymbolTableRecord
100
AcDbRegAppTableRecord
  2
ACAD
 70
     0
  0
ENDTAB
  0
TABLE
  2
DIMSTYLE
  5
A
330
0
100
AcDbSymbolTable
 70
     1
100
AcDbDimStyleTable
  0
DIMSTYLE
105
27
330
A
100
AcDbSymbolTableRecord
100
AcDbDimStyleTableRecord
  2
ISO-25
 70
     0
 41
2.5
 42
0.625
 43
3.75
 44
1.25
 73
     0
 74
     0
 77
     1
 78
     8
140
2.5
141
2.5
143
0.0393700787
147
0.625
171
     3
172
     1
178
     0
271
     2
272
     2
274
     3
278
    44
283
     0
284
     8
340
11
  0
ENDTAB
  0
TABLE
  2
BLOCK_RECORD
  5
1
330
0
100
AcDbSymbolTable
 70
     1
  0
BLOCK_RECORD
  5
1F
330
1
100
AcDbSymbolTableRecord
100
AcDbBlockTableRecord
  2
*Model_Space
340
22
  0
BLOCK_RECORD
  5
1B
330
1
100
AcDbSymbolTableRecord
100
AcDbBlockTableRecord
  2
*Paper_Space
340
1E
  0
BLOCK_RECORD
  5
23
330
1
100
AcDbSymbolTableRecord
100
AcDbBlockTableRecord
  2
*Paper_Space0
340
26
  0
ENDTAB
  0
ENDSEC
  0
SECTION
  2
BLOCKS
  0
BLOCK
  5
20
330
1F
100
AcDbEntity
  8
0
100
AcDbBlockBegin
  2
*Model_Space
 70
     0
 10
0.0
 20
0.0
 30
0.0
  3
*Model_Space
  1

  0
ENDBLK
  5
21
330
1F
100
AcDbEntity
  8
0
100
AcDbBlockEnd
  0
BLOCK
  5
1C
330
1B
100
AcDbEntity
 67
     1
  8
0
100
AcDbBlockBegin
  2
*Paper_Space
 70
     0
 10
0.0
 20
0.0
 30
0.0
  3
*Paper_Space
  1

  0
ENDBLK
  5
1D
330
1B
100
AcDbEntity
 67
     1
  8
0
100
AcDbBlockEnd
  0
BLOCK
  5
24
330
23
100
AcDbEntity
  8
0
100
AcDbBlockBegin
  2
*Paper_Space0
 70
     0
 10
0.0
 20
0.0
 30
0.0
  3
*Paper_Space0
  1

  0
ENDBLK
  5
25
330
23
100
AcDbEntity
  8
0
100
AcDbBlockEnd
  0
ENDSEC
  0
SECTION
  2
ENTITIES
  0
SPLINE
  5
63
330
1F
100
AcDbEntity
  8
0
  6
Continuous
 62
     7
370
    25
100
AcDbSpline
210
0.0
220
0.0
230
1.0
 70
     8
 71
     3
 72
    39
 73
    35
 74
     0
 42
0.00000001
 43
0.00000001
 40
0.0
 40
0.0
 40
0.0
 40
0.0
 40
0.0156746220328011
 40
0.0311746541624962
 40
0.0465003618475816
 40
0.0616520197091002
 40
0.0766299119417554
 40
0.0914343327473884
 40
0.1060655867922129
 40
0.1205239896893115
 40
0.134809868507997
 40
0.2039089197277679
 40
0.2696184767122244
 40
0.3383159266918803
 40
0.4044129287134237
 40
0.4718080704258027
 40
0.5392037468964502
 40
0.6066019443169426
 40
0.6403034279506402
 40
0.674002899547425
 40
0.707704911097897
 40
0.7414080509953177
 40
0.7762221406279036
 40
0.8088160205179803
 40
0.8431646906153318
 40
0.8762189162414229
 40
0.9101391248661622
 40
0.9436163907494644
 40
0.9529658338984056
 40
0.9623279663864007
 40
0.9717076412412274
 40
0.9811096843263105
 40
0.9905388871609756
 40
1.0
 40
1.0
 40
1.0
 40
1.0
 10
45.22178163028773
 20
58.69371554329139
 30
0.0
 10
44.83053963528618
 20
57.94705549620748
 30
0.0
 10
44.0524134474588
 20
56.46205198568686
 30
0.0
 10
42.88034232299366
 20
54.25301809782034
 30
0.0
 10
41.71294468467678
 20
52.07336883311915
 30
0.0
 10
40.5494269023748
 20
49.9235187630817
 30
0.0
 10
39.38999808376654
 20
47.80335866813614
 30
0.0
 10
38.23460297725148
 20
45.7129170125646
 30
0.0
 10
37.08325677271358
 20
43.65218704531104
 30
0.0
 10
35.93595310667214
 20
41.62116743493529
 30
0.0
 10
33.32594952294858
 20
37.0522708713786
 30
0.0
 10
29.24789194381079
 20
30.14760626476482
 30
0.0
 10
23.42834360217636
 20
20.87726239896841
 30
0.0
 10
17.40767815565489
 20
11.9292815725178
 30
0.0
 10
11.01557036202091
 20
3.130068052561516
 30
0.0
 10
4.322528270496563
 20
-5.354229147904078
 30
0.0
 10
-2.762408265702614
 20
-13.60646701436347
 30
0.0
 10
-8.93045394775862
 20
-20.2473022490427
 30
0.0
 10
-13.9867662052746
 20
-25.44219809571659
 30
0.0
 10
-17.82550835480716
 20
-29.29301806922231
 30
0.0
 10
-21.74284260458186
 20
-33.06450211672772
 30
0.0
 10
-25.81753423554792
 20
-36.75612555504704
 30
0.0
 10
-29.99590747941172
 20
-40.23896606062709
 30
0.0
 10
-34.37113474056368
 20
-43.53006560103941
 30
0.0
 10
-38.85902521092725
 20
-46.49998501945385
 30
0.0
 10
-43.60197392827052
 20
-49.19181730748525
 30
0.0
 10
-48.4939082518968
 20
-51.49647498339623
 30
0.0
 10
-52.36153545005438
 20
-52.9519584334334
 30
0.0
 10
-55.03671590120337
 20
-53.80126400788281
 30
0.0
 10
-56.48678075846918
 20
-54.22546433768642
 30
0.0
 10
-57.94879909041054
 20
-54.61747846771382
 30
0.0
 10
-59.42293831531273
 20
-54.97652232371272
 30
0.0
 10
-60.90863423380419
 20
-55.30560114986891
 30
0.0
 10
-61.90634610937862
 20
-55.49713020150494
 30
0.0
 10
-62.40604472737426
 20
-55.59305649520917
 30
0.0
  0
SPLINE
  5
64
330
1F
100
AcDbEntity
  8
0
  6
Continuous
 62
     7
370
    25
100
AcDbSpline
210
0.0
220
0.0
230
1.0
 70
     8
 71
     3
 72
    15
 73
    11
 74
     0
 42
0.00000001
 43
0.00000001
 40
0.0
 40
0.0
 40
0.0
 40
0.0
 40
0.0736921119114412
 40
0.1570257178107144
 40
0.2500012473181914
 40
0.3773054258627337
 40
0.5000022865807499
 40
0.6761018480983702
 40
0.8427663148444454
 40
1.0
 40
1.0
 40
1.0
 40
1.0
 10
54.53535407027188
 20
77.18478180754454
 30
0.0
 10
54.312254273412
 20
76.72773397799911
 30
0.0
 10
53.83686545856237
 20
75.7538405496978
 30
0.0
 10
53.07467614948026
 20
74.20590786159488
 30
0.0
 10
52.14592596472269
 20
72.32756406131145
 30
0.0
 10
51.09209645675321
 20
70.20800504027636
 30
0.0
 10
49.77479804848413
 20
67.57877112022516
 30
0.0
 10
48.32477082352634
 20
64.7122252391631
 30
0.0
 10
46.75402566938997
 20
61.63964052891986
 30
0.0
 10
45.72251834789768
 20
59.65644260894414
 30
0.0
 10
45.2217816302877
 20
58.69371554329136
 30
0.0
  0
SPLINE
  5
65
330
1F
100
AcDbEntity
  8
0
  6
Continuous
 62
     7
370
    25
100
AcDbSpline
210
0.0
220
0.0
230
1.0
 70
     8
 71
     3
 72
     8
 73
     4
 74
     0
 42
0.00000001
 43
0.00000001
 40
0.494428835641908
 40
0.494428835641908
 40
0.494428835641908
 40
0.494428835641908
 40
0.4945873114680487
 40
0.4945873114680487
 40
0.4945873114680487
 40
0.4945873114680487
 10
57.70360873162606
 20
83.76291942200886
 30
0.0
 10
56.64274878713079
 20
81.53706297357115
 30
0.0
 10
55.58666390032271
 20
79.34435043605089
 30
0.0
 10
54.53535407120187
 20
77.18478180944811
 30
0.0
  0
SPLINE
  5
66
330
1F
100
AcDbEntity
  8
0
  6
Continuous
 62
     7
370
    25
100
AcDbSpline
210
0.0
220
0.0
230
1.0
 70
     8
 71
     3
 72
    23
 73
    19
 74
     0
 42
0.00000001
 43
0.00000001
 40
0.0
 40
0.0
 40
0.0
 40
0.0
 40
0.0314074213143161
 40
0.0627642710034086
 40
0.0940878036228622
 40
0.1253953288145481
 40
0.1567041827702993
 40
0.1880316994759931
 40
0.2193951819739074
 40
0.250811873880866
 40
0.3753593291328257
 40
0.4999491187831834
 40
0.6247003632458125
 40
0.7494938437161716
 40
0.812181545015184
 40
0.8747363645542164
 40
0.9372964714833755
 40
1.0
 40
1.0
 40
1.0
 40
1.0
 10
66.89678341051211
 20
92.35477690747513
 30
0.0
 10
66.7717597704792
 20
92.3042671519626
 30
0.0
 10
66.52191380107197
 20
92.20332897077361
 30
0.0
 10
66.15199829339122
 20
92.04095416701304
 30
0.0
 10
65.78612743084061
 20
91.87073884353809
 30
0.0
 10
65.4246170266486
 20
91.69188720668735
 30
0.0
 10
65.06738262348775
 20
91.50461186635489
 30
0.0
 10
64.71444866436231
 20
91.30885807789107
 30
0.0
 10
64.36580370646168
 20
91.10463342002258
 30
0.0
 10
63.68154638367932
 20
90.68201660299677
 30
0.0
 10
62.69359390112489
 20
89.98959763716594
 30
0.0
 10
61.46961946250462
 20
88.94767775124899
 30
0.0
 10
60.34657389219996
 20
87.79612675742882
 30
0.0
 10
59.50376203843349
 20
86.75108232602346
 30
0.0
 10
58.8892758969588
 20
85.87051445757491
 30
0.0
 10
58.45989462342857
 20
85.18781700705425
 30
0.0
 10
58.06065806956882
 20
84.48675727038987
 30
0.0
 10
57.82271598882949
 20
84.00438280429233
 30
0.0
 10
57.70360873162872
 20
83.76291942201863
 30
0.0
  0
SPLINE
  5
69
330
1F
100
AcDbEntity
  8
0
  6
Continuous
 62
     7
370
    25
100
AcDbSpline
210
0.0
220
0.0
230
1.0
 70
     8
 71
     3
 72
    25
 73
    21
 74
     0
 42
0.00000001
 43
0.00000001
 40
0.0
 40
0.0
 40
0.0
 40
0.0
 40
0.0250966535170223
 40
0.0501562073115555
 40
0.075204223263085
 40
0.1002662985549383
 40
0.1253679873598862
 40
0.1881219123533993
 40
0.250891459616028
 40
0.3131435303694363
 40
0.3754111544918806
 40
0.5005943281935987
 40
0.62511437951765
 40
0.6876795037606289
 40
0.7502600598205472
 40
0.8126346753259558
 40
0.8750248367776224
 40
0.9166993184950558
 40
0.9583185651630234
 40
1.0
 40
1.0
 40
1.0
 40
1.0
 10
102.1246423548836
 20
98.17258434565781
 30
0.0
 10
102.0646874365891
 20
98.24624269494906
 30
0.0
 10
101.9448662297781
 20
98.39345050633207
 30
0.0
 10
101.7564007481932
 20
98.60677065960276
 30
0.0
 10
101.561797820636
 20
98.8142771159862
 30
0.0
 10
101.3604104438206
 20
99.01545910027872
 30
0.0
 10
101.0486582040196
 20
99.30773320837145
 30
0.0
 10
100.6112747364098
 20
99.67425002178227
 30
0.0
 10
100.0312379847106
 20
100.0859145756808
 30
0.0
 10
99.42197694873694
 20
100.4494684769101
 30
0.0
 10
98.57394126811532
 20
100.8680331915992
 30
0.0
 10
97.45573436238084
 20
101.2628289301858
 30
0.0
 10
96.28800391905683
 20
101.475343268659
 30
0.0
 10
95.34419428500755
 20
101.5331407224623
 30
0.0
 10
94.63394711357624
 20
101.5198357366741
 30
0.0
 10
93.92772016231626
 20
101.4504116880692
 30
0.0
 10
93.3070745549281
 20
101.3391005482053
 30
0.0
 10
92.77200388018639
 20
101.2057004231219
 30
0.0
 10
92.31902753905726
 20
101.0686594406728
 30
0.0
 10
92.02406875545975
 20
100.9572857297933
 30
0.0
 10
91.87647926284096
 20
100.9015573013014
 30
0.0
  0
SPLINE
  5
6B
330
1F
100
AcDbEntity
  8
0
  6
Continuous
 62
     7
370
    25
100
AcDbSpline
210
0.0
220
0.0
230
1.0
 70
     8
 71
     3
 72
    25
 73
    21
 74
     0
 42
0.00000001
 43
0.00000001
 40
0.0
 40
0.0
 40
0.0
 40
0.0
 40
0.0251588195720116
 40
0.0502605097618779
 40
0.075344219868293
 40
0.100449183305825
 40
0.1256145340858171
 40
0.1881290326700269
 40
0.2506637601826124
 40
0.3131950525478386
 40
0.3757468603094588
 40
0.500234723982666
 40
0.6253605245379467
 40
0.6876277490614684
 40
0.7499150261149163
 40
0.8125066451024907
 40
0.8751183683302749
 40
0.9167706914592552
 40
0.9583383970285334
 40
1.0
 40
1.0
 40
1.0
 40
1.0
 10
103.3855341443049
 20
87.76592281479998
 30
0.0
 10
103.4417206652603
 20
87.81180937211803
 30
0.0
 10
103.5539661216452
 20
87.90347828986764
 30
0.0
 10
103.7152048114998
 20
88.04916252516789
 30
0.0
 10
103.8708373026996
 20
88.2005370825005
 30
0.0
 10
104.0203830694151
 20
88.3582119146374
 30
0.0
 10
104.2347656488765
 20
88.60276863244066
 30
0.0
 10
104.497796989958
 20
88.94779459549996
 30
0.0
 10
104.7820533511467
 20
89.40884456024399
 30
0.0
 10
105.0201417226017
 20
89.89555085072602
 30
0.0
 10
105.2714250933421
 20
90.57080427106668
 30
0.0
 10
105.4601418421909
 20
91.45704196048597
 30
0.0
 10
105.4718852437638
 20
92.36233273302199
 30
0.0
 10
105.3757538465802
 20
93.07668694544995
 30
0.0
 10
105.2514785479772
 20
93.60265758044784
 30
0.0
 10
105.0763012285673
 20
94.1149072801293
 30
0.0
 10
104.8762166600782
 20
94.55332233359746
 30
0.0
 10
104.6706642106121
 20
94.92032126718642
 30
0.0
 10
104.4756705984603
 20
95.22345710920962
 30
0.0
 10
104.329534171435
 20
95.41388357760198
 30
0.0
 10
104.2563835240351
 20
95.50920422919114
 30
0.0
  0
SPLINE
  5
6D
330
1F
100
AcDbEntity
  8
0
  6
Continuous
 62
     7
370
    25
100
AcDbSpline
210
0.0
220
0.0
230
1.0
 70
     8
 71
     3
 72
     9
 73
     5
 74
     0
 42
0.00000001
 43
0.00000001
 40
0.0
 40
0.0
 40
0.0
 40
0.0
 40
0.5007409000135205
 40
1.0
 40
1.0
 40
1.0
 40
1.0
 10
77.69326268419222
 20
67.20212666720856
 30
0.0
 10
77.92740198593306
 20
67.39383653859456
 30
0.0
 10
78.39498772086017
 20
67.77668897062244
 30
0.0
 10
78.87097090253532
 20
68.14904944889027
 30
0.0
 10
79.1086098374272
 20
68.33495380614083
 30
0.0
  0
SPLINE
  5
71
330
1F
100
AcDbEntity
  8
0
  6
Continuous
 62
     7
370
    25
100
AcDbSpline
210
0.0
220
0.0
230
1.0
 70
     8
 71
     3
 72
    33
 73
    29
 74
     0
 42
0.00000001
 43
0.00000001
 40
0.0
 40
0.0
 40
0.0
 40
0.0
 40
0.0102444081044048
 40
0.0205193676845119
 40
0.0308251346342938
 40
0.041161962559763
 40
0.0515301027876652
 40
0.0619298043745996
 40
0.0723613141165439
 40
0.0828248765587726
 40
0.0933207340061522
 40
0.1038491265337964
 40
0.1144102919980694
 40
0.1250044660479186
 40
0.1874387474602545
 40
0.2500044060296397
 40
0.312976497308429
 40
0.3750056403361229
 40
0.4375109132172844
 40
0.500004239078702
 40
0.624992426737359
 40
0.6860863281665387
 40
0.749993375970267
 40
0.8103967085818006
 40
0.8749963575646181
 40
0.9141240086746635
 40
0.9557912340574485
 40
1.0
 40
1.0
 40
1.0
 40
1.0
 10
-74.65708447926676
 20
-90.35046758889344
 30
0.0
 10
-74.13646379225659
 20
-90.02697160685584
 30
0.0
 10
-73.09366979263729
 20
-89.37901489405786
 30
0.0
 10
-71.5333491916573
 20
-88.39568251446815
 30
0.0
 10
-69.97292174869978
 20
-87.40219630076736
 30
0.0
 10
-68.41283463285875
 20
-86.39783427688778
 30
0.0
 10
-66.85296748056332
 20
-85.382790772769
 30
0.0
 10
-65.2933526884601
 20
-84.35701348823302
 30
0.0
 10
-63.73398151976411
 20
-83.32051650214085
 30
0.0
 10
-62.17485636866405
 20
-82.27329604417865
 30
0.0
 10
-60.61597641146769
 20
-81.21535308006291
 30
0.0
 10
-59.05734252166435
 20
-80.14668755698749
 30
0.0
 10
-57.49895199995995
 20
-79.06729873454813
 30
0.0
 10
-53.40100340794412
 20
-76.20027847989056
 30
0.0
 10
-46.82826787586871
 20
-71.44256479149539
 30
0.0
 10
-37.90070336240715
 20
-64.6003650430069
 30
0.0
 10
-29.18220147386768
 20
-57.53188127174383
 30
0.0
 10
-20.67079669052
 20
-50.22075988148548
 30
0.0
 10
-12.40342775064434
 20
-42.67682245698639
 30
0.0
 10
-1.666373808003466
 20
-32.26106172158686
 30
0.0
 10
8.531403911729758
 20
-21.42160022210939
 30
0.0
 10
18.33961135469747
 20
-10.12805459259645
 30
0.0
 10
25.41740853921408
 20
-1.585015354141286
 30
0.0
 10
32.45116666246926
 20
7.26321656173211
 30
0.0
 10
38.43523441201712
 20
15.05009473734543
 30
0.0
 10
43.65715765653091
 20
22.0076965441313
 30
0.0
 10
48.1054606763532
 20
28.02032680384859
 30
0.0
 10
51.12856228376992
 20
32.17496546164217
 30
0.0
 10
52.68484814807536
 20
34.31376403809694
 30
0.0
  0
SPLINE
  5
72
330
1F
100
AcDbEntity
  8
0
  6
Continuous
 62
     7
370
    25
100
AcDbSpline
210
0.0
220
0.0
230
1.0
 70
     8
 71
     3
 72
    20
 73
    16
 74
     0
 42
0.00000001
 43
0.00000001
 40
0.0
 40
0.0
 40
0.0
 40
0.0
 40
0.0346928253796721
 40
0.0697101880461849
 40
0.1050579689957709
 40
0.1407418858582728
 40
0.1767674962193501
 40
0.2131402010373113
 40
0.2498652481347515
 40
0.3716225641880117
 40
0.4997684352952229
 40
0.6199198121632431
 40
0.7498892206913359
 40
0.8657559136460593
 40
1.0
 40
1.0
 40
1.0
 40
1.0
 10
-93.7070809919035
 20
-100.0007913089444
 30
0.0
 10
-93.47303591491423
 20
-99.92027056521692
 30
0.0
 10
-93.00275636432548
 20
-99.75847583891738
 30
0.0
 10
-92.29815516965255
 20
-99.50285486257118
 30
0.0
 10
-91.59003668382093
 20
-99.23640274904092
 30
0.0
 10
-90.87869750105844
 20
-98.95824625121435
 30
0.0
 10
-90.16405718787685
 20
-98.66862336458479
 30
0.0
 10
-89.44613651051577
 20
-98.36746730209715
 30
0.0
 10
-88.17068038976969
 20
-97.8145196381067
 30
0.0
 10
-86.31509776266958
 20
-96.95410585430713
 30
0.0
 10
-83.95861036247392
 20
-95.7628323117009
 30
0.0
 10
-81.58633534848855
 20
-94.4758077176631
 30
0.0
 10
-79.32052716197218
 20
-93.17789023901287
 30
0.0
 10
-76.99183830521228
 20
-91.78851239321035
 30
0.0
 10
-75.47254675703732
 20
-90.8527352278337
 30
0.0
 10
-74.65708447926676
 20
-90.35046758889345
 30
0.0
  0
CIRCLE
  5
76
330
1F
100
AcDbEntity
  8
0
  6
Continuous
 62
     7
370
    25
100
AcDbCircle
 10
68.6194480821
 20
77.1847818114
 30
0.0
 40
6.0
  0
CIRCLE
  5
77
330
1F
100
AcDbEntity
  8
0
  6
Continuous
 62
     7
370
    25
100
AcDbCircle
 10
94.6423301578
 20
92.1115901934
 30
0.0
 40
6.0
  0
CIRCLE
  5
78
330
1F
100
AcDbEntity
  8
0
  6
Continuous
 62
     7
370
    25
100
AcDbCircle
 10
-35.951400835
 20
-53.5081088748
 30
0.0
 40
2.600000000000009
  0
CIRCLE
  5
79
330
1F
100
AcDbEntity
  8
0
  6
Continuous
 62
     7
370
    25
100
AcDbCircle
 10
-66.8462303858
 20
-68.4748462902
 30
0.0
 40
2.600000000000023
  0
CIRCLE
  5
7A
330
1F
100
AcDbEntity
  8
0
  6
Continuous
 62
     7
370
    25
100
AcDbCircle
 10
-85.4754669621
 20
-75.7516274867
 30
0.0
 40
2.59999999999998
  0
SPLINE
  5
7B
330
1F
100
AcDbEntity
  8
0
  6
Continuous
 62
     7
370
    25
100
AcDbSpline
210
0.0
220
0.0
230
1.0
 70
     8
 71
     3
 72
    13
 73
     9
 74
     0
 42
0.00000001
 43
0.00000001
 40
0.0
 40
0.0
 40
0.0
 40
0.0
 40
0.1776720169027506
 40
0.3445278790018725
 40
0.5005777617175661
 40
0.6740597452611552
 40
0.8405252197876522
 40
0.9999999999999999
 40
0.9999999999999999
 40
0.9999999999999999
 40
0.9999999999999999
 10
62.93992233690636
 20
48.55982724219116
 30
0.0
 10
63.28442101235603
 20
49.03177976206913
 30
0.0
 10
63.95244628747064
 20
49.94695370728382
 30
0.0
 10
64.93493501614653
 20
51.2679027498956
 30
0.0
 10
65.9193789011929
 20
52.57016322856767
 30
0.0
 10
66.91692596639533
 20
53.86079678064576
 30
0.0
 10
67.93535154593614
 20
55.14946161811414
 30
0.0
 10
68.61406094476875
 20
55.97915524139376
 30
0.0
 10
68.94613723983578
 20
56.38510451059992
 30
0.0
  0
SPLINE
  5
7C
330
1F
100
AcDbEntity
  8
0
  6
Continuous
 62
     7
370
    25
100
AcDbSpline
210
0.0
220
0.0
230
1.0
 70
     8
 71
     3
 72
    13
 73
     9
 74
     0
 42
0.00000001
 43
0.00000001
 40
0.0
 40
0.0
 40
0.0
 40
0.0
 40
0.1606004321324845
 40
0.3272672666410159
 40
0.5000010031702284
 40
0.7499994491114418
 40
0.8868389612604685
 40
1.0
 40
1.0
 40
1.0
 40
1.0
 10
52.68484814807537
 20
34.31376403809695
 30
0.0
 10
53.23607718681517
 20
35.07479152557248
 30
0.0
 10
54.35935698380045
 20
36.62559299203019
 30
0.0
 10
56.06989775685208
 20
38.99897374285924
 30
0.0
 10
58.08255781644839
 20
41.79938248684399
 30
0.0
 10
59.98589836618729
 20
44.46341498624441
 30
0.0
 10
61.69048143763742
 20
46.84107860250893
 30
0.0
 10
62.55059694005002
 20
48.02426569891843
 30
0.0
 10
62.93992233690634
 20
48.55982724219115
 30
0.0
  0
LINE
  5
7D
330
1F
100
AcDbEntity
  8
0
  6
Continuous
 62
     7
370
    25
100
AcDbLine
 10
81.0394339332
 20
97.9596420707
 30
0.0
 11
66.8967834105
 21
92.3547769075
 31
0.0
  0
LINE
  5
7E
330
1F
100
AcDbEntity
  8
0
  6
Continuous
 62
     7
370
    25
100
AcDbLine
 10
91.8764792628
 20
100.9015573013
 30
0.0
 11
81.0394339332
 21
97.9596420707
 31
0.0
  0
LINE
  5
7F
330
1F
100
AcDbEntity
  8
0
  6
Continuous
 62
     7
370
    25
100
AcDbLine
 10
104.256383524
 20
95.5092042292
 30
0.0
 11
102.1246423549
 21
98.1725843457
 31
0.0
  0
LINE
  5
80
330
1F
100
AcDbEntity
  8
0
  6
Continuous
 62
     7
370
    25
100
AcDbLine
 10
79.1086098374
 20
68.3349538061
 30
0.0
 11
103.3855341443
 21
87.7659228148
 31
0.0
  0
LINE
  5
81
330
1F
100
AcDbEntity
  8
0
  6
Continuous
 62
     7
370
    25
100
AcDbLine
 10
73.1993011584
 20
63.6052119168
 30
0.0
 11
77.6932626842
 21
67.2021266672
 31
0.0
  0
LINE
  5
82
330
1F
100
AcDbEntity
  8
0
  6
Continuous
 62
     7
370
    25
100
AcDbLine
 10
68.9658132449
 20
56.4147423834
 30
0.0
 11
73.1993011584
 21
63.6052119168
 31
0.0
  0
LINE
  5
83
330
1F
100
AcDbEntity
  8
0
  6
Continuous
 62
     7
370
    25
100
AcDbLine
 10
-105.4284994986
 20
-63.5720286725
 30
0.0
 11
-102.7809075783
 21
-102.484788694
 31
0.0
  0
LINE
  5
84
330
1F
100
AcDbEntity
  8
0
  6
Continuous
 62
     7
370
    25
100
AcDbLine
 10
-62.4060539482
 20
-55.592931796
 30
0.0
 11
-105.4284994986
 21
-63.5720286725
 31
0.0
  0
ARC
  5
85
330
1F
100
AcDbEntity
  8
0
  6
Continuous
 62
     7
370
    25
100
AcDbCircle
 10
68.6195475798
 20
56.6232712038
 30
0.0
 40
0.4042080897760379
100
AcDbArc
 50
323.8984633422
 51
328.9427217177
  0
ARC
  5
86
330
1F
100
AcDbEntity
  8
0
  6
Continuous
 62
     7
370
    25
100
AcDbCircle
 10
-104.3939225549
 20
-78.7776364656
 30
0.0
 40
23.76196296809541
100
AcDbArc
 50
273.8923583823
 51
296.7273719131
  0
ENDSEC
  0
SECTION
  2
OBJECTS
  0
DICTIONARY
  5
C
330
0
100
AcDbDictionary
281
     1
  3
ACAD_GROUP
350
D
  3
ACAD_LAYOUT
350
1A
  3
ACAD_MLINESTYLE
350
17
  3
ACAD_PLOTSETTINGS
350
19
  3
ACAD_PLOTSTYLENAME
350
E
  3
ACAD_SCALELIST
350
47
  3
DWGPROPS
350
87
  0
DICTIONARY
  5
D
102
{ACAD_REACTORS
330
C
102
}
330
C
100
AcDbDictionary
281
     1
  0
DICTIONARY
  5
1A
102
{ACAD_REACTORS
330
C
102
}
330
C
100
AcDbDictionary
281
     1
  3
Layout1
350
1E
  3
Layout2
350
26
  3
Model
350
22
  0
DICTIONARY
  5
17
102
{ACAD_REACTORS
330
C
102
}
330
C
100
AcDbDictionary
281
     1
  3
Standard
350
18
  0
DICTIONARY
  5
19
102
{ACAD_REACTORS
330
C
102
}
330
C
100
AcDbDictionary
281
     1
  0
ACDBDICTIONARYWDFLT
  5
E
102
{ACAD_REACTORS
330
C
102
}
330
C
100
AcDbDictionary
281
     1
  3
Normal
350
F
100
AcDbDictionaryWithDefault
340
F
  0
DICTIONARY
  5
47
102
{ACAD_REACTORS
330
C
102
}
330
C
100
AcDbDictionary
281
     1
  3
A0
350
48
  3
A1
350
49
  3
A2
350
4A
  3
A3
350
4B
  3
A4
350
4C
  3
A5
350
4D
  3
A6
350
4E
  3
A7
350
4F
  3
A8
350
50
  3
A9
350
51
  3
B0
350
52
  3
B1
350
53
  3
B2
350
54
  3
B3
350
55
  3
B4
350
56
  3
B5
350
57
  3
B6
350
58
  0
XRECORD
  5
87
102
{ACAD_REACTORS
330
C
102
}
330
C
100
AcDbXrecord
280
     1
  1
DWGPROPS COOKIE
  2

  3

  4

  6

  7

  8
35453
  9

300
=
301
=
302
=
303
=
304
=
305
=
306
=
307
=
308
=
309
=
 40
0.0
 41
2460761.362161713
 42
2460761.362189017
  1

 90
        0
  0
LAYOUT
  5
1E
102
{ACAD_REACTORS
330
1A
102
}
330
1A
100
AcDbPlotSettings
  1

  2
none_device
  4

  6

 40
0.0
 41
0.0
 42
0.0
 43
0.0
 44
0.0
 45
0.0
 46
0.0
 47
0.0
 48
0.0
 49
0.0
140
0.0
141
0.0
142
1.0
143
1.0
 70
   688
 72
     1
 73
     0
 74
     5
  7

 75
    16
147
1.0
148
0.0
149
0.0
100
AcDbLayout
  1
Layout1
 70
     1
 71
     1
 10
0.0
 20
0.0
 11
420.0
 21
297.0
 12
0.0
 22
0.0
 32
0.0
 14
1.0000000000E+20
 24
1.0000000000E+20
 34
1.0000000000E+20
 15
-1.0000000000E+20
 25
-1.0000000000E+20
 35
-1.0000000000E+20
146
0.0
 13
0.0
 23
0.0
 33
0.0
 16
1.0
 26
0.0
 36
0.0
 17
0.0
 27
1.0
 37
0.0
 76
     0
330
1B
  0
LAYOUT
  5
26
102
{ACAD_REACTORS
330
1A
102
}
330
1A
100
AcDbPlotSettings
  1

  2
none_device
  4

  6

 40
0.0
 41
0.0
 42
0.0
 43
0.0
 44
0.0
 45
0.0
 46
0.0
 47
0.0
 48
0.0
 49
0.0
140
0.0
141
0.0
142
1.0
143
1.0
 70
   688
 72
     1
 73
     0
 74
     5
  7

 75
    16
147
1.0
148
0.0
149
0.0
100
AcDbLayout
  1
Layout2
 70
     1
 71
     2
 10
0.0
 20
0.0
 11
0.0
 21
0.0
 12
0.0
 22
0.0
 32
0.0
 14
0.0
 24
0.0
 34
0.0
 15
0.0
 25
0.0
 35
0.0
146
0.0
 13
0.0
 23
0.0
 33
0.0
 16
1.0
 26
0.0
 36
0.0
 17
0.0
 27
1.0
 37
0.0
 76
     0
330
23
  0
LAYOUT
  5
22
102
{ACAD_REACTORS
330
1A
102
}
330
1A
100
AcDbPlotSettings
  1

  2
none_device
  4
ANSI_A_(11.00_x_8.50_Inches)
  6

 40
6.35
 41
19.05
 42
6.35000508
 43
19.05000254
 44
279.4
 45
215.9
 46
133.3343908229
 47
89.4035031809
 48
0.0
 49
0.0
140
0.0
141
0.0
142
0.0412482971
143
1.0
 70
  1696
 72
     0
 73
     0
 74
     0
  7

 75
     0
147
0.0179189148
148
-1300.4909072572
149
0.0
100
AcDbLayout
  1
Model
 70
     1
 71
     0
 10
0.0
 20
0.0
 11
420.0
 21
297.0
 12
0.0
 22
0.0
 32
0.0
 14
-105.4284994986
 24
-102.484788694
 34
0.0
 15
105.4582914936
 25
101.5236333842
 35
0.0
146
0.0
 13
0.0
 23
0.0
 33
0.0
 16
1.0
 26
0.0
 36
0.0
 17
0.0
 27
1.0
 37
0.0
 76
     0
330
1F
331
29
  0
MLINESTYLE
  5
18
102
{ACAD_REACTORS
330
17
102
}
330
17
100
AcDbMlineStyle
  2
Standard
 70
     0
  3

 62
   256
 51
90.0
 52
90.0
 71
     2
 49
0.5
 62
   256
  6
BYLAYER
 49
-0.5
 62
   256
  6
BYLAYER
  0
ACDBPLACEHOLDER
  5
F
102
{ACAD_REACTORS
330
E
102
}
330
E
  0
SCALE
  5
48
102
{ACAD_REACTORS
330
47
102
}
330
47
100
AcDbScale
 70
     0
300
1:1
140
1.0
141
1.0
290
     1
  0
SCALE
  5
49
102
{ACAD_REACTORS
330
47
102
}
330
47
100
AcDbScale
 70
     0
300
1:2
140
1.0
141
2.0
290
     0
  0
SCALE
  5
4A
102
{ACAD_REACTORS
330
47
102
}
330
47
100
AcDbScale
 70
     0
300
1:4
140
1.0
141
4.0
290
     0
  0
SCALE
  5
4B
102
{ACAD_REACTORS
330
47
102
}
330
47
100
AcDbScale
 70
     0
300
1:5
140
1.0
141
5.0
290
     0
  0
SCALE
  5
4C
102
{ACAD_REACTORS
330
47
102
}
330
47
100
AcDbScale
 70
     0
300
1:8
140
1.0
141
8.0
290
     0
  0
SCALE
  5
4D
102
{ACAD_REACTORS
330
47
102
}
330
47
100
AcDbScale
 70
     0
300
1:10
140
1.0
141
10.0
290
     0
  0
SCALE
  5
4E
102
{ACAD_REACTORS
330
47
102
}
330
47
100
AcDbScale
 70
     0
300
1:16
140
1.0
141
16.0
290
     0
  0
SCALE
  5
4F
102
{ACAD_REACTORS
330
47
102
}
330
47
100
AcDbScale
 70
     0
300
1:20
140
1.0
141
20.0
290
     0
  0
SCALE
  5
50
102
{ACAD_REACTORS
330
47
102
}
330
47
100
AcDbScale
 70
     0
300
1:30
140
1.0
141
30.0
290
     0
  0
SCALE
  5
51
102
{ACAD_REACTORS
330
47
102
}
330
47
100
AcDbScale
 70
     0
300
1:40
140
1.0
141
40.0
290
     0
  0
SCALE
  5
52
102
{ACAD_REACTORS
330
47
102
}
330
47
100
AcDbScale
 70
     0
300
1:50
140
1.0
141
50.0
290
     0
  0
SCALE
  5
53
102
{ACAD_REACTORS
330
47
102
}
330
47
100
AcDbScale
 70
     0
300
1:100
140
1.0
141
100.0
290
     0
  0
SCALE
  5
54
102
{ACAD_REACTORS
330
47
102
}
330
47
100
AcDbScale
 70
     0
300
2:1
140
2.0
141
1.0
290
     0
  0
SCALE
  5
55
102
{ACAD_REACTORS
330
47
102
}
330
47
100
AcDbScale
 70
     0
300
4:1
140
4.0
141
1.0
290
     0
  0
SCALE
  5
56
102
{ACAD_REACTORS
330
47
102
}
330
47
100
AcDbScale
 70
     0
300
8:1
140
8.0
141
1.0
290
     0
  0
SCALE
  5
57
102
{ACAD_REACTORS
330
47
102
}
330
47
100
AcDbScale
 70
     0
300
10:1
140
10.0
141
1.0
290
     0
  0
SCALE
  5
58
102
{ACAD_REACTORS
330
47
102
}
330
47
100
AcDbScale
 70
     0
300
100:1
140
100.0
141
1.0
290
     0
  0
ENDSEC
  0
EOF
